<?xml version="1.0" encoding="utf-8"?>
<svg viewBox="3.523 -2.469 261.331 44.856" xmlns="http://www.w3.org/2000/svg">
  <path d="M 91.09200177001954 13.163999069213865 Q 94.48400177001953 13.163999069213865 96.42000177001952 15.211999069213867 Q 98.35600177001953 17.25999906921387 98.35600177001953 20.81199906921387 L 98.35600177001953 31.275999069213867 L 92.08400177001954 31.275999069213867 L 92.08400177001954 21.64399906921387 Q 92.08400177001954 20.203999069213864 91.28400177001953 19.403999069213867 Q 90.48400177001953 18.603999069213867 89.10800177001953 18.603999069213867 Q 87.73200177001954 18.603999069213867 86.93200177001953 19.403999069213867 Q 86.13200177001953 20.203999069213864 86.13200177001953 21.64399906921387 L 86.13200177001953 31.275999069213867 L 79.86000177001954 31.275999069213867 L 79.86000177001954 21.64399906921387 Q 79.86000177001954 20.203999069213864 79.07600177001953 19.403999069213867 Q 78.29200177001954 18.603999069213867 76.91600177001953 18.603999069213867 Q 75.50800177001953 18.603999069213867 74.70800177001954 19.403999069213867 Q 73.90800177001952 20.203999069213864 73.90800177001952 21.64399906921387 L 73.90800177001952 31.275999069213867 L 67.63600177001953 31.275999069213867 L 67.63600177001953 13.323999069213865 L 73.90800177001952 13.323999069213865 L 73.90800177001952 15.691999069213868 Q 74.74000177001953 14.539999069213867 76.06800177001954 13.851999069213868 Q 77.39600177001952 13.163999069213865 79.12400177001953 13.163999069213865 Q 81.10800177001953 13.163999069213865 82.66000177001953 14.027999069213866 Q 84.21200177001953 14.891999069213867 85.10800177001953 16.459999069213865 Q 86.06800177001954 14.987999069213867 87.63600177001953 14.075999069213868 Q 89.20400177001953 13.163999069213865 91.09200177001954 13.163999069213865 Z M 118.92232489013672 22.091999069213866 Q 118.92232489013672 22.827999069213867 118.82632489013672 23.563999069213867 L 106.95432489013672 23.563999069213867 Q 107.05032489013672 25.035999069213865 107.77032489013672 25.755999069213868 Q 108.49032489013672 26.475999069213866 109.61032489013672 26.475999069213866 Q 111.17832489013672 26.475999069213866 111.85032489013672 25.06799906921387 L 118.53832489013672 25.06799906921387 Q 118.12232489013672 26.923999069213867 116.92232489013672 28.379999069213866 Q 115.72232489013672 29.835999069213866 113.89832489013672 30.667999069213867 Q 112.07432489013672 31.499999069213867 109.86632489013672 31.499999069213867 Q 107.21032489013672 31.499999069213867 105.14632489013673 30.379999069213866 Q 103.08232489013672 29.25999906921387 101.91432489013673 27.179999069213867 Q 100.74632489013672 25.099999069213865 100.74632489013672 22.283999069213866 Q 100.74632489013672 19.467999069213867 101.89832489013672 17.403999069213867 Q 103.05032489013672 15.339999069213867 105.11432489013671 14.219999069213866 Q 107.17832489013672 13.099999069213865 109.86632489013672 13.099999069213865 Q 112.52232489013672 13.099999069213865 114.57032489013672 14.187999069213866 Q 116.61832489013672 15.275999069213867 117.77032489013672 17.307999069213867 Q 118.92232489013672 19.339999069213867 118.92232489013672 22.091999069213866 Z M 112.52232489013672 20.523999069213865 Q 112.52232489013672 19.371999069213867 111.75432489013671 18.715999069213865 Q 110.98632489013671 18.059999069213866 109.83432489013671 18.059999069213866 Q 108.68232489013673 18.059999069213866 107.94632489013672 18.68399906921387 Q 107.21032489013672 19.307999069213867 106.98632489013671 20.523999069213865 Z M 120.45482861328125 22.283999069213866 Q 120.45482861328125 19.499999069213867 121.60682861328125 17.419999069213866 Q 122.75882861328125 15.339999069213867 124.82282861328125 14.219999069213866 Q 126.88682861328125 13.099999069213865 129.54282861328124 13.099999069213865 Q 132.96682861328125 13.099999069213865 135.30282861328124 14.971999069213865 Q 137.63882861328125 16.843999069213865 138.31082861328125 20.203999069213864 L 131.65482861328124 20.203999069213864 Q 131.07882861328125 18.443999069213866 129.41482861328126 18.443999069213866 Q 128.23082861328126 18.443999069213866 127.54282861328124 19.419999069213866 Q 126.85482861328126 20.395999069213865 126.85482861328126 22.283999069213866 Q 126.85482861328126 24.171999069213868 127.54282861328124 25.163999069213865 Q 128.23082861328126 26.155999069213866 129.41482861328126 26.155999069213866 Q 131.11082861328126 26.155999069213866 131.65482861328124 24.395999069213868 L 138.31082861328125 24.395999069213868 Q 137.63882861328125 27.723999069213868 135.30282861328124 29.611999069213866 Q 132.96682861328125 31.499999069213867 129.54282861328124 31.499999069213867 Q 126.88682861328125 31.499999069213867 124.82282861328125 30.379999069213866 Q 122.75882861328125 29.25999906921387 121.60682861328125 27.179999069213867 Q 120.45482861328125 25.099999069213865 120.45482861328125 22.283999069213866 Z M 152.71399841308593 13.163999069213865 Q 155.78599841308593 13.163999069213865 157.59399841308593 15.227999069213865 Q 159.40199841308595 17.291999069213865 159.40199841308595 20.81199906921387 L 159.40199841308595 31.275999069213867 L 153.12999841308593 31.275999069213867 L 153.12999841308593 21.64399906921387 Q 153.12999841308593 20.107999069213868 152.32999841308595 19.227999069213865 Q 151.52999841308593 18.347999069213866 150.18599841308594 18.347999069213866 Q 148.77799841308592 18.347999069213866 147.97799841308594 19.227999069213865 Q 147.17799841308593 20.107999069213868 147.17799841308593 21.64399906921387 L 147.17799841308593 31.275999069213867 L 140.90599841308594 31.275999069213867 L 140.90599841308594 7.5959990692138675 L 147.17799841308593 7.5959990692138675 L 147.17799841308593 15.883999069213868 Q 148.00999841308595 14.667999069213867 149.43399841308593 13.915999069213868 Q 150.85799841308594 13.163999069213865 152.71399841308593 13.163999069213865 Z M 161.8254951171875 22.283999069213866 Q 161.8254951171875 19.499999069213867 162.8334951171875 17.419999069213866 Q 163.8414951171875 15.339999069213867 165.5854951171875 14.219999069213866 Q 167.3294951171875 13.099999069213865 169.4734951171875 13.099999069213865 Q 171.3294951171875 13.099999069213865 172.67349511718749 13.835999069213866 Q 174.0174951171875 14.571999069213867 174.7534951171875 15.819999069213868 L 174.7534951171875 13.323999069213865 L 181.0254951171875 13.323999069213865 L 181.0254951171875 31.275999069213867 L 174.7534951171875 31.275999069213867 L 174.7534951171875 28.77999906921387 Q 174.0174951171875 30.027999069213866 172.6574951171875 30.763999069213867 Q 171.2974951171875 31.499999069213867 169.4734951171875 31.499999069213867 Q 167.3294951171875 31.499999069213867 165.5854951171875 30.379999069213866 Q 163.8414951171875 29.25999906921387 162.8334951171875 27.163999069213865 Q 161.8254951171875 25.06799906921387 161.8254951171875 22.283999069213866 Z M 174.7534951171875 22.283999069213866 Q 174.7534951171875 20.55599906921387 173.8094951171875 19.563999069213867 Q 172.8654951171875 18.571999069213867 171.4894951171875 18.571999069213867 Q 170.0814951171875 18.571999069213867 169.1534951171875 19.547999069213866 Q 168.2254951171875 20.523999069213865 168.2254951171875 22.283999069213866 Q 168.2254951171875 24.011999069213868 169.1534951171875 25.019999069213867 Q 170.0814951171875 26.027999069213866 171.4894951171875 26.027999069213866 Q 172.8654951171875 26.027999069213866 173.8094951171875 25.035999069213865 Q 174.7534951171875 24.043999069213868 174.7534951171875 22.283999069213866 Z M 201.3241092529297 25.931999069213866 L 201.3241092529297 31.275999069213867 L 198.60410925292967 31.275999069213867 Q 191.72410925292968 31.275999069213867 191.72410925292968 24.45999906921387 L 191.72410925292968 18.539999069213867 L 189.51610925292968 18.539999069213867 L 189.51610925292968 13.323999069213865 L 191.72410925292968 13.323999069213865 L 191.72410925292968 8.971999069213865 L 198.02810925292968 8.971999069213865 L 198.02810925292968 13.323999069213865 L 201.2921092529297 13.323999069213865 L 201.2921092529297 18.539999069213867 L 198.02810925292968 18.539999069213867 L 198.02810925292968 24.55599906921387 Q 198.02810925292968 25.291999069213865 198.3641092529297 25.611999069213866 Q 198.70010925292968 25.931999069213866 199.5001092529297 25.931999069213866 Z M 223.53253662109375 13.323999069213865 L 212.14053662109376 39.819999069213864 L 205.32453662109376 39.819999069213864 L 209.61253662109374 30.507999069213867 L 202.25253662109375 13.323999069213865 L 209.22853662109375 13.323999069213865 L 213.00453662109376 23.499999069213867 L 216.65253662109376 13.323999069213865 Z M 231.43538366699218 15.819999069213868 Q 232.1713836669922 14.571999069213867 233.5153836669922 13.835999069213866 Q 234.8593836669922 13.099999069213865 236.6833836669922 13.099999069213865 Q 238.82738366699218 13.099999069213865 240.57138366699218 14.219999069213866 Q 242.31538366699218 15.339999069213867 243.32338366699219 17.419999069213866 Q 244.3313836669922 19.499999069213867 244.3313836669922 22.283999069213866 Q 244.3313836669922 25.06799906921387 243.32338366699219 27.163999069213865 Q 242.31538366699218 29.25999906921387 240.57138366699218 30.379999069213866 Q 238.82738366699218 31.499999069213867 236.6833836669922 31.499999069213867 Q 234.8593836669922 31.499999069213867 233.53138366699218 30.763999069213867 Q 232.20338366699218 30.027999069213866 231.43538366699218 28.77999906921387 L 231.43538366699218 39.85199906921387 L 225.1633836669922 39.85199906921387 L 225.1633836669922 13.323999069213865 L 231.43538366699218 13.323999069213865 L 231.43538366699218 15.819999069213868 Z M 237.9633836669922 22.283999069213866 Q 237.9633836669922 20.523999069213865 237.01938366699218 19.547999069213866 Q 236.0753836669922 18.571999069213867 234.6993836669922 18.571999069213867 Q 233.32338366699219 18.571999069213867 232.3793836669922 19.563999069213867 Q 231.43538366699218 20.55599906921387 231.43538366699218 22.283999069213866 Q 231.43538366699218 24.043999069213868 232.3793836669922 25.035999069213865 Q 233.32338366699219 26.027999069213866 234.6993836669922 26.027999069213866 Q 236.0753836669922 26.027999069213866 237.01938366699218 25.019999069213867 Q 237.9633836669922 24.011999069213868 237.9633836669922 22.283999069213866 Z M 264.0713193359375 22.091999069213866 Q 264.0713193359375 22.827999069213867 263.9753193359375 23.563999069213867 L 252.1033193359375 23.563999069213867 Q 252.1993193359375 25.035999069213865 252.9193193359375 25.755999069213868 Q 253.6393193359375 26.475999069213866 254.7593193359375 26.475999069213866 Q 256.3273193359375 26.475999069213866 256.9993193359375 25.06799906921387 L 263.6873193359375 25.06799906921387 Q 263.2713193359375 26.923999069213867 262.0713193359375 28.379999069213866 Q 260.8713193359375 29.835999069213866 259.0473193359375 30.667999069213867 Q 257.2233193359375 31.499999069213867 255.0153193359375 31.499999069213867 Q 252.3593193359375 31.499999069213867 250.2953193359375 30.379999069213866 Q 248.2313193359375 29.25999906921387 247.0633193359375 27.179999069213867 Q 245.8953193359375 25.099999069213865 245.8953193359375 22.283999069213866 Q 245.8953193359375 19.467999069213867 247.0473193359375 17.403999069213867 Q 248.1993193359375 15.339999069213867 250.2633193359375 14.219999069213866 Q 252.3273193359375 13.099999069213865 255.0153193359375 13.099999069213865 Q 257.6713193359375 13.099999069213865 259.7193193359375 14.187999069213866 Q 261.7673193359375 15.275999069213867 262.91931933593753 17.307999069213867 Q 264.0713193359375 19.339999069213867 264.0713193359375 22.091999069213866 Z M 257.6713193359375 20.523999069213865 Q 257.6713193359375 19.371999069213867 256.9033193359375 18.715999069213865 Q 256.1353193359375 18.059999069213866 254.9833193359375 18.059999069213866 Q 253.8313193359375 18.059999069213866 253.0953193359375 18.68399906921387 Q 252.3593193359375 19.307999069213867 252.1353193359375 20.523999069213865 Z" transform="matrix(1, 0, 0, 1, 0, 0)" style="text-transform: lowercase; white-space: pre;"/>
  <path d="M 54.611 8.82 C 56.627 8.82 58.26 10.454 58.26 12.469 L 58.26 30.715 C 58.26 32.731 56.627 34.364 54.611 34.364 L 10.821 34.364 C 8.806 34.364 7.172 32.731 7.172 30.715 L 7.172 12.469 C 7.172 10.454 8.806 8.82 10.821 8.82 L 54.611 8.82 Z M 10.821 5.171 C 6.79 5.171 3.523 8.439 3.523 12.469 L 3.523 30.715 C 3.523 34.746 6.79 38.014 10.821 38.014 L 54.611 38.014 C 58.642 38.014 61.909 34.746 61.909 30.715 L 61.909 12.469 C 61.909 8.439 58.642 5.171 54.611 5.171 L 10.821 5.171 Z" style=""/>
  <path d="M 49.728 27.978 C 49.728 27.475 50.136 27.066 50.64 27.066 L 52.465 27.066 C 52.969 27.066 53.377 27.475 53.377 27.978 L 53.377 29.803 C 53.377 30.307 52.969 30.715 52.465 30.715 L 50.64 30.715 C 50.136 30.715 49.728 30.307 49.728 29.803 L 49.728 27.978 Z M 49.728 20.68 C 49.728 20.176 50.136 19.768 50.64 19.768 L 52.465 19.768 C 52.969 19.768 53.377 20.176 53.377 20.68 L 53.377 22.505 C 53.377 23.008 52.969 23.417 52.465 23.417 L 50.64 23.417 C 50.136 23.417 49.728 23.008 49.728 22.505 L 49.728 20.68 Z M 31.482 20.68 C 31.482 20.176 31.891 19.768 32.394 19.768 L 34.219 19.768 C 34.723 19.768 35.131 20.176 35.131 20.68 L 35.131 22.505 C 35.131 23.008 34.723 23.417 34.219 23.417 L 32.394 23.417 C 31.891 23.417 31.482 23.008 31.482 22.505 L 31.482 20.68 Z M 38.78 20.68 C 38.78 20.176 39.189 19.768 39.693 19.768 L 45.166 19.768 C 45.67 19.768 46.079 20.176 46.079 20.68 L 46.079 22.505 C 46.079 23.008 45.67 23.417 45.166 23.417 L 39.693 23.417 C 39.189 23.417 38.78 23.008 38.78 22.505 L 38.78 20.68 Z M 42.43 27.978 C 42.43 27.475 42.838 27.066 43.342 27.066 L 45.166 27.066 C 45.67 27.066 46.079 27.475 46.079 27.978 L 46.079 29.803 C 46.079 30.307 45.67 30.715 45.166 30.715 L 43.342 30.715 C 42.838 30.715 42.43 30.307 42.43 29.803 L 42.43 27.978 Z M 24.184 20.68 C 24.184 20.176 24.592 19.768 25.096 19.768 L 26.921 19.768 C 27.424 19.768 27.833 20.176 27.833 20.68 L 27.833 22.505 C 27.833 23.008 27.424 23.417 26.921 23.417 L 25.096 23.417 C 24.592 23.417 24.184 23.008 24.184 22.505 L 24.184 20.68 Z M 16.885 20.68 C 16.885 20.176 17.294 19.768 17.798 19.768 L 19.622 19.768 C 20.126 19.768 20.535 20.176 20.535 20.68 L 20.535 22.505 C 20.535 23.008 20.126 23.417 19.622 23.417 L 17.798 23.417 C 17.294 23.417 16.885 23.008 16.885 22.505 L 16.885 20.68 Z M 9.587 20.68 C 9.587 20.176 9.995 19.768 10.499 19.768 L 12.324 19.768 C 12.828 19.768 13.236 20.176 13.236 20.68 L 13.236 22.505 C 13.236 23.008 12.828 23.417 12.324 23.417 L 10.499 23.417 C 9.995 23.417 9.587 23.008 9.587 22.505 L 9.587 20.68 Z M 49.728 13.382 C 49.728 12.878 50.136 12.469 50.64 12.469 L 52.465 12.469 C 52.969 12.469 53.377 12.878 53.377 13.382 L 53.377 15.206 C 53.377 15.71 52.969 16.119 52.465 16.119 L 50.64 16.119 C 50.136 16.119 49.728 15.71 49.728 15.206 L 49.728 13.382 Z M 42.43 13.382 C 42.43 12.878 42.838 12.469 43.342 12.469 L 45.166 12.469 C 45.67 12.469 46.079 12.878 46.079 13.382 L 46.079 15.206 C 46.079 15.71 45.67 16.119 45.166 16.119 L 43.342 16.119 C 42.838 16.119 42.43 15.71 42.43 15.206 L 42.43 13.382 Z M 35.131 13.382 C 35.131 12.878 35.54 12.469 36.044 12.469 L 37.868 12.469 C 38.372 12.469 38.78 12.878 38.78 13.382 L 38.78 15.206 C 38.78 15.71 38.372 16.119 37.868 16.119 L 36.044 16.119 C 35.54 16.119 35.131 15.71 35.131 15.206 L 35.131 13.382 Z M 27.833 13.382 C 27.833 12.878 28.241 12.469 28.745 12.469 L 30.57 12.469 C 31.074 12.469 31.482 12.878 31.482 13.382 L 31.482 15.206 C 31.482 15.71 31.074 16.119 30.57 16.119 L 28.745 16.119 C 28.241 16.119 27.833 15.71 27.833 15.206 L 27.833 13.382 Z M 20.535 13.382 C 20.535 12.878 20.943 12.469 21.447 12.469 L 23.271 12.469 C 23.775 12.469 24.184 12.878 24.184 13.382 L 24.184 15.206 C 24.184 15.71 23.775 16.119 23.271 16.119 L 21.447 16.119 C 20.943 16.119 20.535 15.71 20.535 15.206 L 20.535 13.382 Z M 9.587 13.382 C 9.587 12.878 9.995 12.469 10.499 12.469 L 15.973 12.469 C 16.477 12.469 16.885 12.878 16.885 13.382 L 16.885 15.206 C 16.885 15.71 16.477 16.119 15.973 16.119 L 10.499 16.119 C 9.995 16.119 9.587 15.71 9.587 15.206 L 9.587 13.382 Z M 9.587 27.978 C 9.587 27.475 9.995 27.066 10.499 27.066 L 12.324 27.066 C 12.828 27.066 13.236 27.475 13.236 27.978 L 13.236 29.803 C 13.236 30.307 12.828 30.715 12.324 30.715 L 10.499 30.715 C 9.995 30.715 9.587 30.307 9.587 29.803 L 9.587 27.978 Z M 16.885 27.978 C 16.885 27.475 17.294 27.066 17.798 27.066 L 37.868 27.066 C 38.372 27.066 38.78 27.475 38.78 27.978 L 38.78 29.803 C 38.78 30.307 38.372 30.715 37.868 30.715 L 17.798 30.715 C 17.294 30.715 16.885 30.307 16.885 29.803 L 16.885 27.978 Z" style=""/>
</svg>