<?xml version="1.0" encoding="utf-8"?>
<svg viewBox="166.953 191.672 46.875 43.46" width="46.875" height="43.46" xmlns="http://www.w3.org/2000/svg">
  <path d="M 191.8460029296875 206.76599291992187 Q 195.19400292968749 206.76599291992187 197.0385029296875 208.78099291992189 Q 198.8830029296875 210.79599291992187 198.8830029296875 214.23699291992187 L 198.8830029296875 224.37399291992188 L 192.0320029296875 224.37399291992188 L 192.0320029296875 215.10499291992187 Q 192.0320029296875 213.98899291992188 191.3655029296875 213.35349291992188 Q 190.6990029296875 212.71799291992187 189.5830029296875 212.71799291992187 Q 188.4360029296875 212.71799291992187 187.7850029296875 213.35349291992188 Q 187.1340029296875 213.98899291992188 187.1340029296875 215.10499291992187 L 187.1340029296875 224.37399291992188 L 180.2830029296875 224.37399291992188 L 180.2830029296875 215.10499291992187 Q 180.2830029296875 213.98899291992188 179.6165029296875 213.35349291992188 Q 178.9500029296875 212.71799291992187 177.8340029296875 212.71799291992187 Q 176.6870029296875 212.71799291992187 176.0360029296875 213.35349291992188 Q 175.3850029296875 213.98899291992188 175.3850029296875 215.10499291992187 L 175.3850029296875 224.37399291992188 L 168.5030029296875 224.37399291992188 L 168.5030029296875 206.88999291992187 L 175.3850029296875 206.88999291992187 L 175.3850029296875 209.2459929199219 Q 176.1290029296875 208.12999291992188 177.4155029296875 207.4479929199219 Q 178.7020029296875 206.76599291992187 180.4380029296875 206.76599291992187 Q 182.3290029296875 206.76599291992187 183.7860029296875 207.58749291992189 Q 185.2430029296875 208.40899291992187 186.11100292968752 209.89699291992187 Q 187.0720029296875 208.53299291992187 188.5600029296875 207.64949291992187 Q 190.0480029296875 206.76599291992187 191.8460029296875 206.76599291992187 Z M 212.73301721191407 218.51499291992187 L 212.73301721191407 224.37399291992188 L 210.12901721191406 224.37399291992188 Q 202.93701721191405 224.37399291992188 202.93701721191405 217.21299291992187 L 202.93701721191405 212.62499291992188 L 200.76701721191407 212.62499291992188 L 200.76701721191407 206.88999291992187 L 202.93701721191405 206.88999291992187 L 202.93701721191405 202.6739929199219 L 209.81901721191406 202.6739929199219 L 209.81901721191406 206.88999291992187 L 212.67101721191406 206.88999291992187 L 212.67101721191406 212.62499291992188 L 209.81901721191406 212.62499291992188 L 209.81901721191406 217.33699291992187 Q 209.81901721191406 217.95699291992187 210.11351721191406 218.23599291992187 Q 210.40801721191406 218.51499291992187 211.09001721191407 218.51499291992187 Z" transform="matrix(1, 0, 0, 1, 0, 0)" style="text-transform: lowercase; white-space: pre;"/>
</svg>